<?xml version="1.0" encoding="UTF-8" standalone="no"?>
<!DOCTYPE svg PUBLIC "-//W3C//DTD SVG 1.1//EN" "http://www.w3.org/Graphics/SVG/1.1/DTD/svg11.dtd">
<svg width="100%" height="100%" viewBox="0 0 4288 1229" version="1.1" xmlns="http://www.w3.org/2000/svg" xmlns:xlink="http://www.w3.org/1999/xlink" xml:space="preserve" xmlns:serif="http://www.serif.com/" style="fill-rule:evenodd;clip-rule:evenodd;stroke-linejoin:round;stroke-miterlimit:2;">
    <g transform="matrix(1,0,0,1,-3779.53,-11055.1)">
        <g transform="matrix(1.42857,0,0,2,2470.19,-24755.9)">
            <path d="M1114.96,18059.1l-0,35.433l-198.426,0l0,-141.732l198.426,-0l-0,35.433l66.141,-0l0,-35.433l330.709,-0l0,236.22l-140.673,100.481l182.012,130.008l-140.308,100.22l-264.567,-188.976l-33.314,-0l-0,141.705l-198.426,0l0,-283.438l314.66,0l82.191,-58.707l-0,-35.781l-132.284,0l0,-35.433l-66.141,0Zm-99.213,-70.866c-27.378,-0 -49.606,15.877 -49.606,35.433c-0,19.556 22.228,35.433 49.606,35.433c27.378,0 49.606,-15.877 49.606,-35.433c0,-19.556 -22.228,-35.433 -49.606,-35.433Zm2348.03,153.543l82.677,0l330.708,-236.22l140.308,100.22l-289.613,206.866l289.613,206.867l-140.308,100.22l-330.708,-236.22l-33.071,-0l-0,188.976l-198.425,-0l-0,-330.709l49.606,0l-0,-47.244l-49.606,0l-0,-141.732l198.425,-0l-0,141.732l-49.606,0l-0,47.244Zm-0,-118.11c-0,-19.556 -22.228,-35.433 -49.607,-35.433c-27.378,-0 -49.606,15.877 -49.606,35.433c-0,19.556 22.228,35.433 49.606,35.433c27.379,0 49.607,-15.877 49.607,-35.433Zm-800.034,-4.002l44.012,-31.437l0.008,0.006l111.132,-0l-0,-35.433l198.425,-0l198.425,141.732l0,236.194l-198.425,141.732l-330.302,0l-0.037,0.027l-0.037,-0.027l-0.333,0l0,-0.237l-528.764,-377.689l-166.174,0l-82.227,58.734l-0,118.779l82.19,58.708l116.235,-0l0,35.433l70.741,-0l14.601,-10.429l-35.249,-25.178l140.308,-100.22l140.308,100.22l-140.308,100.22l-34.905,-24.932l-43.659,31.185l-0.015,-0.011l-0,0.011l-111.822,-0l0,35.433l-198.425,-0l-198.425,-141.732l0.037,-0.027l-0.037,0l-0,-236.194l0.037,0l198.388,-141.706l330.708,0l0,0.058l529.017,377.869l165.921,-0l82.228,-58.734l-0,-118.779l-82.191,-58.708l-116.234,0l-0,-35.433l-70.053,0l-14.945,10.675l34.905,24.932l-140.308,100.22l-140.308,-100.22l140.308,-100.22l35.249,25.178Zm-330.394,285.86c-19.36,-13.828 -50.795,-13.828 -70.154,-0c-19.36,13.828 -19.36,36.282 -0,50.11c19.359,13.828 50.794,13.828 70.154,-0c19.359,-13.828 19.359,-36.282 -0,-50.11Zm330.222,-235.873c-19.36,-13.828 -50.795,-13.828 -70.154,0c-19.36,13.828 -19.36,36.282 -0,50.11c19.359,13.828 50.794,13.828 70.154,-0c19.359,-13.828 19.359,-36.282 -0,-50.11Z"/>
        </g>
    </g>
</svg>
