<?xml version="1.0" encoding="UTF-8" standalone="no"?>
<!DOCTYPE svg PUBLIC "-//W3C//DTD SVG 1.1//EN" "http://www.w3.org/Graphics/SVG/1.1/DTD/svg11.dtd">
<svg width="100%" height="100%" viewBox="0 0 4961 3508" version="1.1" xmlns="http://www.w3.org/2000/svg" xmlns:xlink="http://www.w3.org/1999/xlink" xml:space="preserve" xmlns:serif="http://www.serif.com/" style="fill-rule:evenodd;clip-rule:evenodd;stroke-linejoin:round;stroke-miterlimit:2;">
    <g transform="matrix(-5.9539,7.29143e-16,-7.27541e-16,-5.94082,12712,7314.35)">
        <path d="M1612.85,819.986L1640.79,792.064L1640.79,773.462L1611.75,744.359L1577.77,744.359C1576.05,744.359 1574.66,742.963 1574.66,741.241L1574.66,688.219C1574.66,686.498 1576.05,685.102 1577.77,685.102L1630.68,685.102C1632.39,685.102 1633.79,686.498 1633.79,688.219L1633.79,717.987L1675.32,761.171C1675.88,761.745 1676.19,762.509 1676.19,763.307L1676.52,800.944C1676.53,801.782 1676.2,802.587 1675.61,803.179L1643.53,835.232L1643.53,892.388C1643.53,894.11 1642.14,895.506 1640.42,895.506L1614.17,895.506C1612.45,895.506 1611.06,894.11 1611.06,892.388L1611.06,822.808C1611.06,821.561 1611.79,820.484 1612.85,819.986ZM1647.01,793.358L1647.01,793.366L1643.91,790.25C1643.91,790.25 1643.91,790.249 1643.91,790.249L1646.1,795.565L1617.28,824.36L1617.28,889.271L1637.31,889.271L1637.31,833.938C1637.31,833.11 1637.64,832.316 1638.22,831.731L1670.29,799.688L1669.98,764.603L1628.44,721.408C1627.88,720.827 1627.57,720.052 1627.57,719.245L1627.57,691.337L1580.88,691.337L1580.88,738.124L1613.04,738.124C1613.87,738.124 1614.66,738.452 1615.24,739.037L1646.1,769.967C1646.69,770.551 1647.01,771.344 1647.01,772.171L1647.01,793.358ZM1587.89,714.73C1587.89,705.694 1595.21,698.357 1604.22,698.357C1613.24,698.357 1620.56,705.694 1620.56,714.73C1620.56,723.767 1613.24,731.103 1604.22,731.103C1595.21,731.103 1587.89,723.767 1587.89,714.73ZM1594.11,714.73C1594.11,720.326 1598.64,724.868 1604.22,724.868C1609.81,724.868 1614.34,720.326 1614.34,714.73C1614.34,709.135 1609.81,704.592 1604.22,704.592C1598.64,704.592 1594.11,709.135 1594.11,714.73ZM1664.51,841.464L1664.47,841.48L1716.04,789.906L1715.76,726.685L1705.63,726.685C1703.91,726.685 1702.52,725.289 1702.52,723.567L1702.52,670.545C1702.52,668.823 1703.91,667.428 1705.63,667.428L1758.53,667.428C1759.36,667.428 1760.15,667.756 1760.73,668.341C1761.32,668.925 1761.64,669.718 1761.64,670.545L1761.64,723.568C1761.64,725.289 1760.25,726.685 1758.53,726.685L1748.42,726.685L1748.42,802.217C1748.42,803.046 1748.09,803.84 1747.5,804.425L1696.02,855.853L1696.02,892.388C1696.02,894.11 1694.63,895.506 1692.91,895.506L1666.67,895.506C1664.95,895.506 1663.56,894.11 1663.56,892.388L1663.56,843.71C1663.56,842.827 1663.92,842.031 1664.51,841.464ZM1666.61,840.593C1666.63,840.592 1666.64,840.592 1666.66,840.592L1666.67,840.57L1666.61,840.593ZM1666.71,840.589L1666.72,840.592C1667.55,840.607 1668.3,840.945 1668.85,841.486L1668.89,841.502C1667.9,840.514 1666.88,840.572 1666.71,840.589ZM1669.78,844.98L1669.78,889.271L1689.8,889.271L1689.8,854.559C1689.8,853.73 1690.13,852.936 1690.72,852.351L1742.19,800.923L1742.19,723.567C1742.19,721.846 1743.59,720.45 1745.31,720.45L1755.42,720.45L1755.42,673.663L1708.74,673.663L1708.74,720.45L1718.85,720.45C1720.57,720.45 1721.95,721.837 1721.96,723.553L1722.27,791.179C1722.28,792.012 1721.95,792.812 1721.36,793.4L1669.78,844.98ZM1732.08,713.429C1723.13,713.429 1715.74,706.003 1715.74,697.056C1715.74,688.11 1723.13,680.683 1732.08,680.683C1741.03,680.683 1748.42,688.11 1748.42,697.056C1748.42,706.003 1741.03,713.429 1732.08,713.429ZM1732.08,707.194C1737.62,707.194 1742.19,702.596 1742.19,697.056C1742.19,691.517 1737.62,686.918 1732.08,686.918C1726.54,686.918 1721.96,691.517 1721.96,697.056C1721.96,702.596 1726.54,707.194 1732.08,707.194ZM1341.47,879.931L1449.47,918.68L1575.37,942.026C1576.84,942.3 1577.91,943.589 1577.91,945.092L1577.91,1023.62C1577.91,1024.4 1577.62,1025.15 1577.1,1025.72L1557.31,1047.52C1556.46,1048.47 1555.11,1048.79 1553.91,1048.34L1466.7,1015.38C1466.54,1015.32 1466.39,1015.24 1466.24,1015.16L1381.34,965.953C1380.93,965.712 1380.57,965.378 1380.31,964.976L1323.88,879.582C1323.14,878.462 1323.19,876.994 1324.02,875.937C1324.85,874.88 1326.26,874.473 1327.52,874.925L1329.08,875.486C1329.12,874.006 1330.19,872.747 1331.66,872.492L1587.39,828.039C1588.3,827.882 1589.23,828.133 1589.93,828.726C1590.63,829.318 1591.04,830.191 1591.04,831.111L1591.04,892.388C1591.04,894.097 1589.66,895.487 1587.96,895.506L1469.85,896.818C1469.7,896.82 1469.56,896.811 1469.41,896.792L1341.47,879.931ZM1470,890.581L1584.82,889.305L1584.82,834.816L1352.83,875.14L1470,890.581ZM1564.03,873.746L1469.59,877.079C1467.94,877.137 1466.53,875.898 1466.38,874.254C1466.23,872.61 1467.38,871.131 1469.01,870.882L1563.45,856.437C1564.35,856.3 1565.26,856.562 1565.95,857.154C1566.64,857.747 1567.03,858.61 1567.03,859.519L1567.03,870.63C1567.03,872.309 1565.71,873.687 1564.03,873.746ZM1560.81,867.621L1560.81,863.149L1522.8,868.962L1560.81,867.621ZM1447.61,924.635L1334.23,883.955L1385.09,960.923L1469.13,1009.63L1554.13,1041.76L1571.69,1022.42L1571.69,947.685L1448.09,924.765C1447.92,924.735 1447.76,924.691 1447.61,924.635ZM1551.48,965.075L1551.48,1017.3C1551.48,1018.33 1550.97,1019.3 1550.11,1019.88C1549.26,1020.46 1548.17,1020.58 1547.21,1020.19L1474.99,991.304C1474.86,991.251 1474.73,991.189 1474.61,991.119L1402.38,950.008C1402.04,949.809 1401.73,949.545 1401.48,949.23L1386.2,929.858C1385.35,928.772 1385.31,927.25 1386.11,926.121C1386.91,924.992 1388.36,924.527 1389.66,924.979L1443.99,943.772L1548.9,962.003C1550.39,962.262 1551.48,963.559 1551.48,965.075ZM1545.26,967.698L1442.68,949.873C1442.52,949.844 1442.35,949.802 1442.2,949.748L1397.67,934.347L1405.99,944.887L1477.5,985.592L1545.26,1012.7L1545.26,967.698ZM1771.81,961.119C1771.76,961.121 1771.71,961.123 1771.65,961.123L1732.28,961.123C1730.57,961.123 1729.17,959.727 1729.17,958.005L1729.17,931.759C1729.17,930.037 1730.57,928.641 1732.28,928.641L1759.81,928.641L1804.37,884.097L1803.93,744.359L1793.8,744.359C1792.08,744.359 1790.69,742.963 1790.69,741.241L1790.69,688.219C1790.69,686.498 1792.08,685.102 1793.8,685.102L1846.71,685.102C1848.43,685.102 1849.82,686.498 1849.82,688.219L1849.82,741.241C1849.82,742.963 1848.43,744.359 1846.71,744.359L1836.59,744.359L1836.59,896.843C1836.59,897.674 1836.26,898.471 1835.67,899.056L1774.16,960.218C1773.52,960.862 1772.66,961.162 1771.81,961.119ZM1770.29,954.888C1770.34,954.859 1770.4,954.833 1770.46,954.808C1770.61,954.745 1770.77,954.695 1770.92,954.657L1830.37,895.544L1830.37,741.241C1830.37,739.52 1831.76,738.124 1833.48,738.124L1843.6,738.124L1843.6,691.337L1796.91,691.337L1796.91,738.124L1807.03,738.124C1808.75,738.124 1810.14,739.514 1810.14,741.232L1810.59,885.377C1810.59,886.209 1810.27,887.007 1809.68,887.594L1763.3,933.966C1762.71,934.549 1761.92,934.876 1761.1,934.876L1735.39,934.876L1735.39,954.888L1770.29,954.888ZM1820.26,731.103C1811.31,731.103 1803.92,723.677 1803.92,714.73C1803.92,705.784 1811.31,698.357 1820.26,698.357C1829.2,698.357 1836.59,705.784 1836.59,714.73C1836.59,723.677 1829.2,731.103 1820.26,731.103ZM1820.26,724.868C1825.8,724.868 1830.37,720.27 1830.37,714.73C1830.37,709.191 1825.8,704.592 1820.26,704.592C1814.72,704.592 1810.14,709.191 1810.14,714.73C1810.14,720.27 1814.72,724.868 1820.26,724.868ZM1784.99,1013.61C1784.92,1013.61 1784.85,1013.62 1784.78,1013.62L1732.28,1013.62C1730.57,1013.62 1729.17,1012.22 1729.17,1010.5L1729.17,984.252C1729.17,982.53 1730.57,981.134 1732.28,981.134L1773.05,981.134L1874.46,879.727L1874.46,815.055L1864.34,815.055C1862.62,815.055 1861.23,813.66 1861.23,811.938L1861.23,758.916C1861.23,757.194 1862.62,755.798 1864.34,755.798L1917.28,755.798C1918.1,755.798 1918.89,756.127 1919.48,756.712C1920.06,757.297 1920.39,758.09 1920.39,758.917L1920.36,811.939C1920.36,813.661 1918.97,815.055 1917.25,815.055L1907.14,815.055L1907.3,857.961L1967.46,857.842L1967.46,847.83C1967.46,846.108 1968.85,844.712 1970.57,844.712L2023.06,844.712C2024.78,844.712 2026.17,846.108 2026.17,847.83L2026.17,900.323C2026.17,902.045 2024.78,903.44 2023.06,903.44L1970.57,903.44C1968.85,903.44 1967.46,902.045 1967.46,900.323L1967.46,890.321L1909.72,890.393L1787.41,1012.71C1786.75,1013.37 1785.86,1013.67 1784.99,1013.61ZM1783.2,1007.38C1783.32,1007.31 1783.45,1007.24 1783.59,1007.19C1783.83,1007.09 1784.07,1007.02 1784.32,1006.98L1906.23,885.07C1906.82,884.488 1907.61,884.16 1908.43,884.159L1970.56,884.082C1971.39,884.081 1972.18,884.409 1972.77,884.994C1973.35,885.579 1973.68,886.372 1973.68,887.2L1973.68,897.205L2019.95,897.205L2019.95,850.947L1973.68,850.947L1973.68,860.953C1973.68,862.672 1972.29,864.067 1970.57,864.07L1904.21,864.203C1902.5,864.206 1901.1,862.816 1901.09,861.097L1900.91,811.949C1900.91,811.121 1901.24,810.325 1901.82,809.737C1902.4,809.15 1903.2,808.82 1904.02,808.82L1914.14,808.82L1914.16,762.033L1867.45,762.033L1867.45,808.82L1877.57,808.82C1879.29,808.82 1880.68,810.216 1880.68,811.938L1880.68,881.02C1880.68,881.848 1880.35,882.642 1879.77,883.227L1776.54,986.459C1775.95,987.042 1775.16,987.369 1774.34,987.369L1735.39,987.369L1735.39,1007.38L1783.2,1007.38ZM1890.8,801.8C1881.85,801.8 1874.46,794.373 1874.46,785.427C1874.46,776.48 1881.85,769.054 1890.8,769.054C1899.74,769.054 1907.13,776.48 1907.13,785.427C1907.13,794.373 1899.74,801.8 1890.8,801.8ZM1890.8,795.565C1896.34,795.565 1900.91,790.966 1900.91,785.427C1900.91,779.887 1896.34,775.289 1890.8,775.289C1885.26,775.289 1880.68,779.887 1880.68,785.427C1880.68,790.966 1885.26,795.565 1890.8,795.565ZM1996.81,890.317C1987.85,890.317 1980.58,883.038 1980.58,874.076C1980.58,865.115 1987.85,857.835 1996.81,857.835C2005.78,857.835 2013.05,865.115 2013.05,874.076C2013.05,883.038 2005.78,890.317 1996.81,890.317ZM1996.81,884.082C2002.34,884.082 2006.83,879.601 2006.83,874.076C2006.83,868.552 2002.34,864.07 1996.81,864.07C1991.29,864.07 1986.8,868.552 1986.8,874.076C1986.8,879.601 1991.29,884.082 1996.81,884.082ZM1597.94,1023.62L1597.94,918.635C1597.94,916.913 1599.33,915.518 1601.05,915.518L1706.04,915.518C1707.76,915.518 1709.15,916.913 1709.15,918.635L1709.15,1023.62C1709.15,1025.34 1707.76,1026.74 1706.04,1026.74L1601.05,1026.74C1599.33,1026.74 1597.94,1025.34 1597.94,1023.62ZM1604.16,1020.5L1702.93,1020.5L1702.93,921.753L1604.16,921.753L1604.16,1020.5ZM1682.9,971.129L1682.9,997.375C1682.9,999.097 1681.51,1000.49 1679.79,1000.49L1627.3,1000.49C1625.58,1000.49 1624.19,999.097 1624.19,997.375L1624.19,944.882C1624.19,943.802 1624.74,942.799 1625.66,942.231C1626.58,941.663 1627.72,941.61 1628.68,942.092L1681.18,968.339C1682.23,968.867 1682.9,969.947 1682.9,971.129ZM1676.68,973.057L1630.41,949.921L1630.41,994.258L1676.68,994.258L1676.68,973.057ZM1572.61,1060.79L1585.73,1047.66C1586.31,1047.08 1587.1,1046.75 1587.93,1046.75L1729.17,1046.75L1729.17,1036.75C1729.17,1035.43 1730,1034.25 1731.24,1033.81C1732.47,1033.37 1733.86,1033.75 1734.69,1034.77L1858.92,1186.62C1859.79,1187.67 1859.87,1189.16 1859.12,1190.3C1858.37,1191.44 1856.97,1191.96 1855.67,1191.59L1629.67,1127.02C1629.11,1126.86 1628.61,1126.55 1628.22,1126.13L1572.51,1065.1C1571.38,1063.87 1571.43,1061.96 1572.61,1060.79ZM1579.11,1063.09L1632.22,1121.27L1847.81,1182.86L1735.39,1045.46L1735.39,1049.87C1735.39,1051.59 1734,1052.99 1732.28,1052.99L1589.21,1052.99L1579.11,1063.09ZM1765.09,1040.3L1876.64,1040.3C1877.42,1040.3 1878.16,1040.59 1878.74,1041.11L2051.66,1199.09C2052.76,1200.09 2052.99,1201.75 2052.21,1203.02C2051.43,1204.3 2049.85,1204.84 2048.45,1204.3L1823.04,1118.4C1822.54,1118.21 1822.09,1117.88 1821.74,1117.46L1762.69,1045.39C1761.92,1044.46 1761.77,1043.17 1762.28,1042.08C1762.79,1040.99 1763.89,1040.3 1765.09,1040.3ZM1771.67,1046.53L1826.03,1112.87L2035.37,1192.65L1875.43,1046.53L1771.67,1046.53ZM1803.06,1021.41L1896.54,928.1C1897.45,927.194 1898.82,926.938 1899.99,927.455L2111.74,1020.77C2113.09,1021.36 2113.84,1022.82 2113.53,1024.26C2113.23,1025.71 2111.96,1026.74 2110.49,1026.74L1805.26,1026.74C1804,1026.74 1802.86,1025.98 1802.38,1024.81C1801.9,1023.65 1802.17,1022.3 1803.06,1021.41ZM1812.79,1020.5L2095.69,1020.5L1899.43,934.019L1812.79,1020.5ZM1729.17,895.506L1719.16,895.506C1717.44,895.506 1716.05,894.11 1716.05,892.388L1716.05,866.142C1716.05,865.313 1716.38,864.519 1716.96,863.934L1782.63,798.317C1783.53,797.426 1784.87,797.162 1786.03,797.647C1787.19,798.133 1787.95,799.273 1787.94,800.534L1787.73,871.392C1787.73,872.233 1787.39,873.037 1786.78,873.623L1751.6,907.752C1751.01,908.315 1750.24,908.629 1749.43,908.629L1732.28,908.629C1730.57,908.629 1729.17,907.234 1729.17,905.512L1729.17,895.506ZM1735.39,892.388L1735.39,902.394L1748.17,902.394L1781.51,870.057L1781.7,808.058L1722.27,867.436L1722.27,889.271L1732.28,889.271C1734,889.271 1735.39,890.667 1735.39,892.388ZM1909.45,1040.19L1991.28,1040.19C1991.88,1040.19 1992.46,1040.36 1992.96,1040.69L2092.33,1104.98C2093.51,1105.75 2094.03,1107.21 2093.6,1108.56C2093.17,1109.9 2091.89,1110.78 2090.48,1110.71L1973.59,1104.87C1972.87,1104.83 1972.18,1104.55 1971.65,1104.06L1907.36,1045.62C1906.41,1044.75 1906.08,1043.39 1906.55,1042.18C1907.01,1040.98 1908.16,1040.19 1909.45,1040.19ZM1917.51,1046.42L1975.01,1098.7L2079.2,1103.91L1990.36,1046.42L1917.51,1046.42Z" style="fill:white;"/>
    </g>
</svg>
