<?xml version="1.0" encoding="UTF-8" standalone="no"?>
<!DOCTYPE svg PUBLIC "-//W3C//DTD SVG 1.1//EN" "http://www.w3.org/Graphics/SVG/1.1/DTD/svg11.dtd">
<svg width="100%" height="100%" viewBox="0 0 550 185" version="1.1" xmlns="http://www.w3.org/2000/svg" xmlns:xlink="http://www.w3.org/1999/xlink" xml:space="preserve" xmlns:serif="http://www.serif.com/" style="fill-rule:evenodd;clip-rule:evenodd;stroke-linejoin:round;stroke-miterlimit:2;">
    <g transform="matrix(1,0,0,1,-5989.55,-9093.04)">
        <g transform="matrix(-0.649498,7.95405e-17,-7.93657e-17,-0.64807,7373.3,9545.28)">
            <path d="M1568.19,670.545L1517.66,619.903L1517.66,672.159L1426.26,672.159L1426.26,619.903L1348.51,697.823L1283.88,633.053L1361.1,555.664L1283.88,478.275L1348.51,413.505L1426.26,491.424L1426.26,439.168L1517.66,439.168L1517.66,491.434L1569.8,439.178L1674.26,439.178L1674.32,439.971L1725.45,490.911L1777.19,439.059L1881.13,439.168L1917.22,475.332L1978.91,413.505L2039.09,473.815L2039.09,439.178L2130.48,439.178L2130.48,672.159L1933.27,672.159L1933.27,619.893L1881.13,672.149L1777.11,671.624L1727.12,620.463L1678.42,671.165L1568.19,670.545Z" style="fill:rgb(127,62,152);"/>
        </g>
        <g transform="matrix(0.173174,0,0,0.242444,5843.33,4769.64)">
            <path d="M1114.96,18059.1L1114.96,18094.5L916.535,18094.5L916.535,17952.8L1114.96,17952.8L1114.96,17988.2L1181.1,17988.2L1181.1,17952.8L1511.81,17952.8L1511.81,18189L1371.14,18289.5L1553.15,18419.5L1412.84,18519.7L1148.28,18330.7L1114.96,18330.7L1114.96,18472.4L916.535,18472.4L916.535,18189L1231.19,18189L1313.39,18130.3L1313.39,18094.5L1181.1,18094.5L1181.1,18059.1L1114.96,18059.1ZM1015.75,17988.2C988.37,17988.2 966.142,18004.1 966.142,18023.6C966.142,18043.2 988.37,18059.1 1015.75,18059.1C1043.13,18059.1 1065.35,18043.2 1065.35,18023.6C1065.35,18004.1 1043.13,17988.2 1015.75,17988.2ZM3363.78,18141.7L3446.46,18141.7L3777.16,17905.5L3917.47,18005.7L3627.86,18212.6L3917.47,18419.5L3777.16,18519.7L3446.46,18283.5L3413.39,18283.5L3413.39,18472.4L3214.96,18472.4L3214.96,18141.7L3264.57,18141.7L3264.57,18094.5L3214.96,18094.5L3214.96,17952.8L3413.39,17952.8L3413.39,18094.5L3363.78,18094.5L3363.78,18141.7ZM3363.78,18023.6C3363.78,18004.1 3341.55,17988.2 3314.17,17988.2C3286.8,17988.2 3264.57,18004.1 3264.57,18023.6C3264.57,18043.2 3286.8,18059.1 3314.17,18059.1C3341.55,18059.1 3363.78,18043.2 3363.78,18023.6ZM2563.75,18019.6L2607.76,17988.2L2607.77,17988.2L2718.9,17988.2L2718.9,17952.8L2917.32,17952.8L3115.75,18094.5L3115.75,18330.7L2917.32,18472.4L2587.02,18472.4L2586.98,18472.4L2586.95,18472.4L2586.61,18472.4L2586.61,18472.2L2057.85,18094.5L1891.68,18094.5L1809.45,18153.2L1809.45,18272L1891.64,18330.7L2007.87,18330.7L2007.87,18366.1L2078.62,18366.1L2093.22,18355.7L2057.97,18330.5L2198.28,18230.3L2338.58,18330.5L2198.28,18430.8L2163.37,18405.8L2119.71,18437L2119.7,18437L2119.7,18437L2007.87,18437L2007.87,18472.4L1809.45,18472.4L1611.02,18330.7L1611.06,18330.7L1611.02,18330.7L1611.02,18094.5L1611.06,18094.5L1809.45,17952.8L2140.16,17952.8L2140.16,17952.8L2669.17,18330.7L2835.1,18330.7L2917.32,18272L2917.32,18153.2L2835.13,18094.5L2718.9,18094.5L2718.9,18059.1L2648.85,18059.1L2633.9,18069.7L2668.8,18094.7L2528.5,18194.9L2388.19,18094.7L2528.5,17994.4L2563.75,18019.6ZM2233.35,18305.5C2213.99,18291.7 2182.56,18291.7 2163.2,18305.5C2143.84,18319.3 2143.84,18341.8 2163.2,18355.6C2182.56,18369.4 2213.99,18369.4 2233.35,18355.6C2252.71,18341.8 2252.71,18319.3 2233.35,18305.5ZM2563.57,18069.6C2544.21,18055.8 2512.78,18055.8 2493.42,18069.6C2474.06,18083.4 2474.06,18105.9 2493.42,18119.7C2512.78,18133.5 2544.21,18133.5 2563.57,18119.7C2582.93,18105.9 2582.93,18083.4 2563.57,18069.6Z" style="fill:rgb(255,224,0);"/>
        </g>
    </g>
</svg>
